{
  "accessors": [
    {
      "bufferView": 2,
      "componentType": 5126,
      "count": 65532,
      "max": [
        0.5853140354156494,
        0.7984788417816162,
        0.510017991065979
      ],
      "min": [
        0.060214996337890625,
        0.002872943878173828,
        0.0
      ],
      "type": "VEC3"
    },
    {
      "bufferView": 2,
      "byteOffset": 786384,
      "componentType": 5126,
      "count": 65532,
      "max": [
        0.9999923706054688,
        0.999863862991333,
        0.9460336565971375
      ],
      "min": [
        -0.9996790289878845,
        -0.9999944567680359,
        -0.9999982118606567
      ],
      "type": "VEC3"
    },
    {
      "bufferView": 1,
      "componentType": 5126,
      "count": 65532,
      "max": [
        0.9845259785652161,
        0.9957330226898193
      ],
      "min": [
        0.005415000021457672,
        0.0036329999566078186
      ],
      "type": "VEC2"
    },
    {
      "bufferView": 0,
      "componentType": 5125,
      "count": 349710,
      "type": "SCALAR"
    },
    {
      "bufferView": 2,
      "byteOffset": 1572768,
      "componentType": 5126,
      "count": 65532,
      "max": [
        0.6657360196113586,
        0.7969138622283936,
        0.7875109910964966
      ],
      "min": [
        0.0,
        0.009896039962768555,
        0.003917008638381958
      ],
      "type": "VEC3"
    },
    {
      "bufferView": 2,
      "byteOffset": 2359152,
      "componentType": 5126,
      "count": 65532,
      "max": [
        0.9999883770942688,
        0.9999953508377075,
        0.9999677538871765
      ],
      "min": [
        -0.9999986290931702,
        -0.9999146461486816,
        -0.9999908804893494
      ],
      "type": "VEC3"
    },
    {
      "bufferView": 1,
      "byteOffset": 524256,
      "componentType": 5126,
      "count": 65532,
      "max": [
        0.9936540126800537,
        0.9954959750175476
      ],
      "min": [
        0.004294999875128269,
        0.0036929999478161335
      ],
      "type": "VEC2"
    },
    {
      "bufferView": 0,
      "byteOffset": 1398840,
      "componentType": 5125,
      "count": 325326,
      "type": "SCALAR"
    },
    {
      "bufferView": 2,
      "byteOffset": 3145536,
      "componentType": 5126,
      "count": 65532,
      "max": [
        0.6657080054283142,
        0.6454620361328125,
        0.7806069850921631
      ],
      "min": [
        0.002450019121170044,
        0.0,
        0.15573900938034058
      ],
      "type": "VEC3"
    },
    {
      "bufferView": 2,
      "byteOffset": 3931920,
      "componentType": 5126,
      "count": 65532,
      "max": [
        0.999961256980896,
        0.9999964833259583,
        0.9998553395271301
      ],
      "min": [
        -0.9999894499778748,
        -0.9999991059303284,
        -0.9999666213989258
      ],
      "type": "VEC3"
    },
    {
      "bufferView": 1,
      "byteOffset": 1048512,
      "componentType": 5126,
      "count": 65532,
      "max": [
        0.9235290288925171,
        0.9948139786720276
      ],
      "min": [
        0.003872999921441078,
        0.0032399999909102917
      ],
      "type": "VEC2"
    },
    {
      "bufferView": 0,
      "byteOffset": 2700144,
      "componentType": 5125,
      "count": 339444,
      "type": "SCALAR"
    },
    {
      "bufferView": 2,
      "byteOffset": 4718304,
      "componentType": 5126,
      "count": 65532,
      "max": [
        0.6657360196113586,
        0.6450328826904297,
        0.7826260328292847
      ],
      "min": [
        0.00023499131202697754,
        0.00966191291809082,
        0.2175540030002594
      ],
      "type": "VEC3"
    },
    {
      "bufferView": 2,
      "byteOffset": 5504688,
      "componentType": 5126,
      "count": 65532,
      "max": [
        0.9999947547912598,
        0.9999985098838806,
        0.9993752241134644
      ],
      "min": [
        -0.9999923706054688,
        -0.9998153448104858,
        -0.9979040026664734
      ],
      "type": "VEC3"
    },
    {
      "bufferView": 1,
      "byteOffset": 1572768,
      "componentType": 5126,
      "count": 65532,
      "max": [
        0.9752799868583679,
        0.9959040284156799
      ],
      "min": [
        0.004916999954730272,
        0.004000999964773655
      ],
      "type": "VEC2"
    },
    {
      "bufferView": 0,
      "byteOffset": 4057920,
      "componentType": 5125,
      "count": 313131,
      "type": "SCALAR"
    },
    {
      "bufferView": 2,
      "byteOffset": 6291072,
      "componentType": 5126,
      "count": 65532,
      "max": [
        0.6634429693222046,
        0.7979199886322021,
        0.7934349775314331
      ],
      "min": [
        0.012950003147125244,
        0.002446889877319336,
        0.04490301012992859
      ],
      "type": "VEC3"
    },
    {
      "bufferView": 2,
      "byteOffset": 7077456,
      "componentType": 5126,
      "count": 65532,
      "max": [
        0.9999883770942688,
        0.9999953508377075,
        0.9999756217002869
      ],
      "min": [
        -0.9999386668205261,
        -0.9998541474342346,
        -0.9999613761901855
      ],
      "type": "VEC3"
    },
    {
      "bufferView": 1,
      "byteOffset": 2097024,
      "componentType": 5126,
      "count": 65532,
      "max": [
        0.9956960082054138,
        0.9991469979286194
      ],
      "min": [
        0.005671000108122826,
        0.0062790000811219215
      ],
      "type": "VEC2"
    },
    {
      "bufferView": 0,
      "byteOffset": 5310444,
      "componentType": 5125,
      "count": 303666,
      "type": "SCALAR"
    },
    {
      "bufferView": 2,
      "byteOffset": 7863840,
      "componentType": 5126,
      "count": 50606,
      "max": [
        0.6555190086364746,
        0.79811692237854,
        0.4772840142250061
      ],
      "min": [
        0.026850014925003052,
        4.982948303222656e-05,
        0.028445005416870117
      ],
      "type": "VEC3"
    },
    {
      "bufferView": 2,
      "byteOffset": 8471112,
      "componentType": 5126,
      "count": 50606,
      "max": [
        0.999961256980896,
        0.999967098236084,
        0.9982592463493347
      ],
      "min": [
        -0.9999799728393555,
        -0.999982476234436,
        -0.9999908804893494
      ],
      "type": "VEC3"
    },
    {
      "bufferView": 1,
      "byteOffset": 2621280,
      "componentType": 5126,
      "count": 50606,
      "max": [
        0.9958599805831909,
        0.9992430210113525
      ],
      "min": [
        0.004474999848753214,
        0.005257999990135431
      ],
      "type": "VEC2"
    },
    {
      "bufferView": 0,
      "byteOffset": 6525108,
      "componentType": 5125,
      "count": 198792,
      "type": "SCALAR"
    }
  ],
  "asset": {
    "extras": {
      "author": "JakeCarvey (https://sketchfab.com/JakeCarvey)",
      "license": "CC-BY-4.0 (http://creativecommons.org/licenses/by/4.0/)",
      "source": "https://sketchfab.com/3d-models/godder-skull-897d563bf1f04d72853452251395d882",
      "title": "Godder Skull"
    },
    "generator": "Sketchfab-12.63.0",
    "version": "2.0"
  },
  "bufferViews": [
    {
      "buffer": 0,
      "byteLength": 7320276,
      "name": "floatBufferViews",
      "target": 34963
    },
    {
      "buffer": 0,
      "byteLength": 3026128,
      "byteOffset": 7320276,
      "byteStride": 8,
      "name": "floatBufferViews",
      "target": 34962
    },
    {
      "buffer": 0,
      "byteLength": 9078384,
      "byteOffset": 10346404,
      "byteStride": 12,
      "name": "floatBufferViews",
      "target": 34962
    }
  ],
  "buffers": [
    {
      "byteLength": 19424788,
      "uri": "scene.bin"
    }
  ],
  "images": [
    {
      "uri": "textures/material_0_baseColor.jpeg"
    },
    {
      "uri": "textures/material_0_metallicRoughness.png"
    }
  ],
  "materials": [
    {
      "doubleSided": true,
      "name": "material_0",
      "pbrMetallicRoughness": {
        "baseColorTexture": {
          "index": 0
        },
        "metallicFactor": 0.7860523867719753,
        "metallicRoughnessTexture": {
          "index": 1
        },
        "roughnessFactor": 0.7495713477919851
      }
    }
  ],
  "meshes": [
    {
      "name": "Object_0",
      "primitives": [
        {
          "attributes": {
            "NORMAL": 1,
            "POSITION": 0,
            "TEXCOORD_0": 2
          },
          "indices": 3,
          "material": 0,
          "mode": 4
        }
      ]
    },
    {
      "name": "Object_1",
      "primitives": [
        {
          "attributes": {
            "NORMAL": 5,
            "POSITION": 4,
            "TEXCOORD_0": 6
          },
          "indices": 7,
          "material": 0,
          "mode": 4
        }
      ]
    },
    {
      "name": "Object_2",
      "primitives": [
        {
          "attributes": {
            "NORMAL": 9,
            "POSITION": 8,
            "TEXCOORD_0": 10
          },
          "indices": 11,
          "material": 0,
          "mode": 4
        }
      ]
    },
    {
      "name": "Object_3",
      "primitives": [
        {
          "attributes": {
            "NORMAL": 13,
            "POSITION": 12,
            "TEXCOORD_0": 14
          },
          "indices": 15,
          "material": 0,
          "mode": 4
        }
      ]
    },
    {
      "name": "Object_4",
      "primitives": [
        {
          "attributes": {
            "NORMAL": 17,
            "POSITION": 16,
            "TEXCOORD_0": 18
          },
          "indices": 19,
          "material": 0,
          "mode": 4
        }
      ]
    },
    {
      "name": "Object_5",
      "primitives": [
        {
          "attributes": {
            "NORMAL": 21,
            "POSITION": 20,
            "TEXCOORD_0": 22
          },
          "indices": 23,
          "material": 0,
          "mode": 4
        }
      ]
    }
  ],
  "nodes": [
    {
      "children": [
        1
      ],
      "matrix": [
        3.3164846106413677,
        0.3347252229517643,
        6.29435428966456e-16,
        0.0,
        0.3347252229517643,
        -3.3164846106413677,
        -1.2915190141874972e-15,
        0.0,
        5.088522074878811e-16,
        1.3487474704153212e-15,
        -3.3333332538604736,
        0.0,
        0.3532407581806183,
        -3.5149462223052987,
        3.5027105808258048,
        1.0
      ],
      "name": "Sketchfab_model"
    },
    {
      "children": [
        2,
        3,
        4,
        5,
        6,
        7
      ],
      "matrix": [
        1.0,
        0.0,
        0.0,
        0.0,
        0.0,
        1.0,
        0.0,
        0.0,
        0.0,
        0.0,
        1.0,
        0.0,
        -0.3631010055541992,
        -3.918484926223755,
        -0.4132480025291443,
        1.0
      ],
      "name": "skulll scan.obj.cleaner.gles"
    },
    {
      "mesh": 0,
      "name": "Object_2"
    },
    {
      "mesh": 1,
      "name": "Object_3"
    },
    {
      "mesh": 2,
      "name": "Object_4"
    },
    {
      "mesh": 3,
      "name": "Object_5"
    },
    {
      "mesh": 4,
      "name": "Object_6"
    },
    {
      "mesh": 5,
      "name": "Object_7"
    }
  ],
  "samplers": [
    {
      "magFilter": 9729,
      "minFilter": 9987,
      "wrapS": 10497,
      "wrapT": 10497
    }
  ],
  "scene": 0,
  "scenes": [
    {
      "name": "Sketchfab_Scene",
      "nodes": [
        0
      ]
    }
  ],
  "textures": [
    {
      "sampler": 0,
      "source": 0
    },
    {
      "sampler": 0,
      "source": 1
    }
  ]
}
